<?xml version="1.0" standalone="no"?>
<!DOCTYPE svg PUBLIC "-//W3C//DTD SVG 20010904//EN"
 "http://www.w3.org/TR/2001/REC-SVG-20010904/DTD/svg10.dtd">
<svg version="1.0" xmlns="http://www.w3.org/2000/svg" viewBox="0 0 256.000000 256.000000"
 preserveAspectRatio="xMidYMid meet">
<metadata>
Created by potrace 1.11, written by Peter Selinger 2001-2013
</metadata>
<g transform="translate(0.000000,256.000000) scale(0.100000,-0.100000)"
fill="#000000" stroke="none">
<path d="M220 1265 l0 -545 125 0 125 0 0 40 0 40 -75 0 -75 0 0 465 0 465 75
0 75 0 0 40 0 40 -125 0 -125 0 0 -545z"/>
<path d="M2092 1773 l3 -38 78 -3 77 -3 0 -464 0 -465 -81 0 -80 0 3 -37 3
-38 128 -3 127 -3 0 546 0 545 -131 0 -130 0 3 -37z"/>
<path d="M1097 1730 c-265 -21 -441 -70 -500 -139 l-27 -33 0 -283 0 -283 39
-35 c74 -67 245 -110 512 -129 406 -28 815 52 860 169 5 13 9 142 9 286 0 302
-1 307 -89 352 -148 75 -510 118 -804 95z m441 -71 c181 -19 363 -74 379 -114
15 -40 -92 -89 -262 -120 -122 -23 -489 -32 -638 -15 -172 19 -359 72 -381
109 -30 48 144 114 369 139 114 13 418 14 533 1z m-826 -250 c265 -104 908
-98 1163 11 l45 19 0 -88 c0 -84 -1 -90 -26 -106 -205 -134 -1026 -136 -1225
-2 -34 23 -34 23 -37 111 -3 82 -1 88 15 81 10 -4 39 -16 65 -26z m74 -278
c158 -39 231 -46 499 -46 207 1 281 5 360 19 113 21 219 51 253 72 l22 14 0
-88 c0 -75 -3 -92 -19 -106 -27 -24 -140 -62 -246 -81 -122 -23 -489 -32 -638
-15 -134 15 -282 50 -340 82 l-42 23 -3 93 -3 93 39 -20 c21 -11 74 -29 118
-40z"/>
</g>
</svg>
